<?xml version="1.0" encoding="UTF-8" standalone="no"?>
<svg
   viewBox="0 0 24 24"
   version="1.1"
   id="svg1"
   sodipodi:docname="logo.svg"
   inkscape:version="1.4.2 (ebf0e940d0, 2025-05-08)"
   xmlns:inkscape="http://www.inkscape.org/namespaces/inkscape"
   xmlns:sodipodi="http://sodipodi.sourceforge.net/DTD/sodipodi-0.dtd"
   xmlns="http://www.w3.org/2000/svg"
   xmlns:svg="http://www.w3.org/2000/svg">
  <defs
     id="defs1" />
  <sodipodi:namedview
     id="brain"
     pagecolor="#505050"
     bordercolor="#ffffff"
     borderopacity="1"
     showgrid="true" />

  <path
     d="m 12.706918,12.721503 a 2.5599258,2.5599258 0 0 1 -1.066832,2.230221 l 0.434504,0.841337 c 0.129527,0.253755 0.14719,0.553434 0.03415,0.818375 -0.107743,0.264942 -0.327939,0.47454 -0.598768,0.564621 l -0.44628,0.141302 A 0.95261269,0.95261269 0 0 1 10.013344,17.007083 L 8.8169845,15.595238 A 2.9991403,2.9991403 0 0 1 7.4392876,14.974096 2.9379093,2.9379093 0 0 1 6.5926516,15.103624 2.461603,2.461603 0 0 1 5.1808066,14.657933 2.9573384,2.9573384 0 0 1 4.2664632,14.782161 3.3070615,3.3070615 0 0 1 2.96766,14.528406 2.3173569,2.3173569 0 0 1 1.5958506,12.490121 c -0.045334,-0.406244 0.022373,-0.818376 0.1978232,-1.191649 A 1.9505598,1.9505598 0 0 1 1.7536378,9.9831828 2.5281328,2.5281328 0 0 1 2.8487302,8.7185278 C 3.1766692,7.7647378 4.0969001,7.1265228 5.1078,7.1942298 a 2.5928963,2.5928963 0 0 1 3.291165,-0.20901 2.9084714,2.9084714 0 0 1 0.7341829,-0.09597 2.446884,2.446884 0 0 1 1.9752881,0.926118 2.7130033,2.7130033 0 0 1 2.021211,2.5234232 2.9708799,2.9708799 0 0 1 -0.485727,1.767455 c 0.03945,0.203122 0.06241,0.406244 0.06241,0.615254 M 9.8832291,11.925497 c 0.3220509,0.03945 0.5758059,0.282605 0.5758059,0.604067 A 0.56462025,0.56462025 0 0 1 9.8944151,13.094185 H 9.5388041 A 2.9237791,2.9237791 0 0 1 8.6244608,14.3871 c 0.1413023,0.05063 0.2879034,0.07889 0.4345044,0.118341 2.8966968,-0.03945 2.5575708,-1.806314 2.5575708,-1.834574 a 1.4636558,1.4636558 0 0 0 -1.518999,-1.405958 0.56462025,0.56462025 0 0 1 -0.5640309,-0.56462 0.56462025,0.56462025 0 0 1 0.5640309,-0.56462 c 0.694736,0.01707 1.361212,0.276717 1.880498,0.734183 0.02826,-0.163675 0.04474,-0.333238 0.04474,-0.502801 C 11.989215,9.6670158 11.673052,9.0576498 10.402509,8.9387208 9.6971761,7.2678218 7.9179445,8.1933518 7.9179445,8.7132258 c -0.016485,0.129527 0.1189294,0.406244 0.1413023,0.423318 a 0.56462025,0.56462025 0 0 1 0.565209,0.56462 A 0.56638653,0.56638653 0 0 1 8.0592468,10.265785 1.3217648,1.3217648 0 0 1 7.2526464,9.9496208 C 6.9812328,10.124485 6.6709566,10.232228 6.3489052,10.265788 6.0268538,10.294048 5.7619121,10.067964 5.7448381,9.7576878 A 0.54636871,0.54636871 0 0 1 6.241751,9.1365468 c 0.09008,-0.01178 0.5304722,-0.07889 0.5304722,-0.435093 0,-0.372096 0.1413022,-0.728295 0.3838711,-1.010311 C 6.6368085,7.5498408 6.0780759,7.7364768 5.5134556,8.4194378 4.4742953,8.2557628 4.0509773,8.3970648 3.7407011,9.4980448 3.2043413,9.7629868 2.9223255,9.9496238 2.7975086,10.514244 a 3.3241355,3.3241355 0 0 1 1.8180889,0.141302 0.57109661,0.57109661 0 0 1 0.3332379,0.727707 0.56638653,0.56638653 0 0 1 -0.7282954,0.333238 1.7232987,1.7232987 0 0 0 -1.2988032,-0.03356 c -0.1807491,0.152489 -0.1807491,0.468653 -0.1807491,0.717109 0,0.41802 0.2090095,0.806601 0.565209,1.032684 a 2.0577141,2.0577141 0 0 0 0.9655654,0.226084 3.4065618,3.4065618 0 0 1 -0.2207848,-0.457466 0.58581559,0.58581559 0 0 1 1.1068676,-0.383871 c 0.2254949,0.643514 0.8013016,1.083906 1.4789636,1.157501 A 2.114235,2.114235 0 0 0 8.4384122,12.772136 C 8.5679393,11.993208 9.1943793,11.9255 9.8832281,11.9255 m 1.1292399,4.217284 -0.350312,-0.733594 -0.400356,0.09008 0.564031,0.705922 0.186637,-0.06241 M 8.3866014,11.281986 a 0.56403149,0.56403149 0 0 0 -0.5133982,-0.581694 1.5095791,1.5095791 0 0 0 -1.0892048,0.378572 1.6791418,1.6791418 0 0 0 -0.4745401,1.236395 0.56462025,0.56462025 0 0 0 0.5646203,0.56462 0.55932142,0.55932142 0 0 0 0.5646202,-0.565209 c 0,-0.1519 0.039447,-0.304388 0.1295271,-0.428617 a 0.37386221,0.37386221 0 0 1 0.2431576,-0.08478 c 0.3102762,0.01707 0.5758067,-0.214308 0.5758067,-0.519286 z"
     style="fill:#ff4081;stroke-width:0.564585"
     id="path1" />
  <text
     xml:space="preserve"
     style="font-size:7.80185px;text-align:start;writing-mode:lr-tb;direction:ltr;text-anchor:start;fill:#f7f7f7;stroke-width:0.1;stroke:none;stroke-dasharray:none;stroke-opacity:1;fill-opacity:1"
     id="plusplus"
     transform="scale(1.00000000,1.0000000)"><tspan
       sodipodi:role="line"
       x="14.000000"
       y="13.400000"
       id="tspan3"
       style="stroke-width:0.1;stroke:#000000;stroke-dasharray:none;stroke-opacity:1;fill:#FFFFFF">++</tspan></text>
</svg>
